<?xml version="1.0" encoding="UTF-8" standalone="no"?>
<!-- Created with Inkscape (http://www.inkscape.org/) -->

<svg
   xmlns:dc="http://purl.org/dc/elements/1.1/"
   xmlns:cc="http://creativecommons.org/ns#"
   xmlns:rdf="http://www.w3.org/1999/02/22-rdf-syntax-ns#"
   xmlns:svg="http://www.w3.org/2000/svg"
   xmlns="http://www.w3.org/2000/svg"
   xmlns:sodipodi="http://sodipodi.sourceforge.net/DTD/sodipodi-0.dtd"
   xmlns:inkscape="http://www.inkscape.org/namespaces/inkscape"
   width="238.56mm"
   height="216.259mm"
   viewBox="0 0 238.56 216.259"
   version="1.1"
   id="svg8"
   sodipodi:docname="circles.svg"
   inkscape:version="0.92.4 (5da689c313, 2019-01-14)">
  <defs
     id="defs2" />
  <sodipodi:namedview
     id="base"
     pagecolor="#ffffff"
     bordercolor="#666666"
     borderopacity="1.0"
     inkscape:pageopacity="0.0"
     inkscape:pageshadow="2"
     inkscape:zoom="0.7"
     inkscape:cx="268.58485"
     inkscape:cy="415.36264"
     inkscape:document-units="mm"
     inkscape:current-layer="g4554"
     showgrid="false"
     inkscape:window-width="1920"
     inkscape:window-height="1017"
     inkscape:window-x="2552"
     inkscape:window-y="352"
     inkscape:window-maximized="1" />
  <metadata
     id="metadata5">
    <rdf:RDF>
      <cc:Work
         rdf:about="">
        <dc:format>image/svg+xml</dc:format>
        <dc:type
           rdf:resource="http://purl.org/dc/dcmitype/StillImage" />
        <dc:title></dc:title>
      </cc:Work>
    </rdf:RDF>
  </metadata>
  <g
     inkscape:label="Layer 1"
     inkscape:groupmode="layer"
     id="layer1"
     transform="translate(0,-80.740999)">
    <g
       style="fill:none"
       id="g4554"
       transform="matrix(0.26458333,0,0,0.26458333,-291.09836,38.407591)">
      <path
         style="fill:#0eb363;fill-opacity:0.25"
         d="m 1789.7138,528.99956 a 285,285 0 0 0 -285,285 285,285 0 0 0 51.8828,163.35742 h 450.7598 V 630.03472 A 285,285 0 0 0 1789.7138,528.99956 Z"
         id="circle4534"
         inkscape:connector-curvature="0" />
      <path
         style="fill:#b9f5d8;fill-opacity:0.25"
         d="m 1347.7138,608.99956 a 242,250 0 0 0 -242,250 242,250 0 0 0 29.08,118.35742 H 1560.79 a 242,250 0 0 0 28.9238,-118.35742 242,250 0 0 0 -242,-250 z"
         id="ellipse4536"
         inkscape:connector-curvature="0" />
      <path
         style="fill:#0eb363;fill-opacity:0.25"
         d="m 1849.7138,159.99956 a 285,285 0 0 0 -285,285 285,285 0 0 0 285,285 285,285 0 0 0 157.6426,-47.79492 v -474.4375 a 285,285 0 0 0 -157.6426,-47.76758 z"
         id="circle4538"
         inkscape:connector-curvature="0" />
      <circle
         id="circle4540"
         r="234"
         cy="531.42859"
         cx="1599.7144"
         style="fill:#b9f5d8;fill-opacity:0.25" />
    </g>
  </g>
</svg>
