<svg xmlns="http://www.w3.org/2000/svg" version="1.1" xmlns:xlink="http://www.w3.org/1999/xlink" xmlns:svgjs="http://svgjs.com/svgjs" width="1000" height="1000"><rect width="1000" height="1000" rx="200" ry="200" fill="#1f1f1f" data-darkreader-inline-fill="" style="--darkreader-inline-fill:#17191a;"></rect><g transform="matrix(1.9313304721030042,0,0,1.9313304721030042,50,104.07725321888415)"><svg xmlns="http://www.w3.org/2000/svg" version="1.1" xmlns:xlink="http://www.w3.org/1999/xlink" xmlns:svgjs="http://svgjs.com/svgjs" width="466" height="410"><svg width="466" height="410" viewBox="0 0 466 410" fill="none" xmlns="http://www.w3.org/2000/svg">
<path d="M258.169 397.436L163.593 8L72.068 368.533C72.068 368.533 63.5256 397.436 41.5595 397.436C14.1019 397.436 8 379.181 8 368.533C8 357.884 11.0508 330.502 46.1358 330.502C66.8816 330.502 124.441 330.502 253.593 330.502C262.237 331.516 278.61 322.896 287.153 298.556C297.831 268.131 329.864 88.6255 329.864 49.0734C330.881 29.8044 308.508 8 271.898 8L377.153 402L458 8" stroke="#66C8FF" stroke-width="15" stroke-linecap="round" stroke-linejoin="round" data-darkreader-inline-stroke="" style="--darkreader-inline-stroke:#61c6ff;"></path>
</svg></svg></g></svg>