<svg width="1024" height="1024" viewBox="0 0 1024 1024" fill="none" xmlns="http://www.w3.org/2000/svg">
<rect width="1024" height="1024" fill="#343434"/>
<path fill-rule="evenodd" clip-rule="evenodd" d="M516.931 641.421H459.267L467.992 665.997H525.956L516.931 641.421ZM480.703 701.805L468.347 666.997H526.323L539.104 701.805H480.703ZM484.335 712.035L481.058 702.805H539.471L542.86 712.035H484.335ZM484.69 713.035L491.598 732.497H550.374L543.228 713.035H484.69ZM491.953 733.497L499.217 753.958H558.254L550.741 733.497H491.953Z" fill="#5BC7EA"/>
<path fill-rule="evenodd" clip-rule="evenodd" d="M387.343 278.231L392.611 292.577H316.433L321.701 278.231H387.343ZM316.066 293.577H392.978L405.759 328.384H303.285L316.066 293.577ZM302.918 329.384L295.576 349.381H349.933L352.706 341.569H356.339L359.112 349.381H413.469L406.126 329.384H302.918ZM386.976 277.231L383.587 268H325.458L322.068 277.231H386.976Z" fill="#5BC7EA"/>
<path fill-rule="evenodd" clip-rule="evenodd" d="M271.362 380.538H325.968L309.98 425.576H254.824L271.362 380.538ZM254.457 426.576H309.625L300.901 451.153H269.999V452.153H300.546L291.821 476.729H236.041L254.457 426.576ZM235.674 477.729L218.769 523.767H275.123L291.466 477.729H235.674Z" fill="#5BC7EA"/>
<path fill-rule="evenodd" clip-rule="evenodd" d="M590.294 508.421C583.639 524.843 579.181 542.695 576.92 561.977H629.019C630.042 545.808 634.119 530.527 641.251 516.134C642.564 513.484 643.965 510.913 645.456 508.421H590.294ZM590.703 507.421H646.061C653.942 494.559 664.222 483.839 676.9 475.262C685.701 469.281 695.418 464.988 706.051 462.383H617.875C608.905 472.931 601.181 484.945 594.702 498.423C593.293 501.373 591.96 504.372 590.703 507.421ZM618.733 461.383H710.597C717.468 460.04 724.704 459.368 732.304 459.368C739.82 459.368 746.948 460.04 753.689 461.383H845.347C841.931 457.228 838.31 453.378 834.484 449.831C819.952 436.207 803.83 426.368 786.119 420.312C768.408 414.257 750.47 411.23 732.304 411.23C700.818 411.23 673.267 418.95 649.652 434.391C638.098 441.92 627.791 450.917 618.733 461.383ZM846.161 462.383H758.145C767.045 464.61 775.235 468.071 782.713 472.765C796.499 481.326 807.224 492.878 814.889 507.421H870.711C870.231 506.069 869.736 504.735 869.225 503.419C863.049 487.491 855.361 473.813 846.161 462.383ZM871.062 508.421H815.409C815.562 508.721 815.714 509.021 815.865 509.322C823.736 524.763 827.672 542.323 827.672 562.002H755.906V579.036H882.108C881.604 551.707 877.922 528.169 871.062 508.421ZM882.125 580.036H755.906V608.323H882.168V585.617C882.168 583.739 882.154 581.879 882.125 580.036Z" fill="#5BC7EA"/>
<path fill-rule="evenodd" clip-rule="evenodd" d="M137 748.843H196.037L242.789 617.144H430.848L437.65 636.305H495.314L395.765 365.192H341.408L413.115 567.19H260.522L274.12 528.883H217.767L137 748.843ZM270.359 385.653L277.872 365.192H332.229L324.965 385.653H270.359ZM748.035 756.109C714.43 756.109 685.441 748.692 661.069 733.857C636.849 718.87 618.153 697.98 604.984 671.186C591.965 644.241 585.456 612.906 585.456 577.181C585.456 566.5 586.038 556.198 587.201 546.275H639.301L639.299 546.3H766.188V592.621H639.162C639.93 615.825 644.432 635.732 652.668 652.34C661.902 670.505 674.693 684.356 691.042 693.893C707.391 703.278 726.388 707.971 748.035 707.971C762.114 707.971 774.829 706.003 786.182 702.067C797.687 697.98 807.602 691.925 815.928 683.902C824.254 675.728 830.688 665.585 835.229 653.475L887 668.007C881.55 685.567 872.392 701.008 859.525 714.329C846.658 727.499 830.763 737.792 811.841 745.21C792.919 752.476 771.65 756.109 748.035 756.109Z" fill="white"/>
</svg>
